<svg xmlns="http://www.w3.org/2000/svg" viewBox="0 0 900 900" role="img" aria-labelledby="title desc">
  <title id="title">Abstract developer portrait for Hemansh Singh</title>
  <desc id="desc">A layered glassmorphism portrait-style graphic with code panels and gradient light.</desc>
  <defs>
    <linearGradient id="bg" x1="0" x2="1" y1="0" y2="1">
      <stop offset="0" stop-color="#62d6ff"/>
      <stop offset=".52" stop-color="#a78bfa"/>
      <stop offset="1" stop-color="#4ade80"/>
    </linearGradient>
    <filter id="shadow" x="-20%" y="-20%" width="140%" height="140%">
      <feDropShadow dx="0" dy="30" stdDeviation="35" flood-color="#020617" flood-opacity=".38"/>
    </filter>
  </defs>
  <rect width="900" height="900" rx="42" fill="#070b14"/>
  <path d="M0 220C155 88 268 84 407 164c168 96 303 54 493-80v816H0Z" fill="url(#bg)" opacity=".22"/>
  <g filter="url(#shadow)">
    <rect x="118" y="132" width="664" height="636" rx="34" fill="#111827" opacity=".82" stroke="#ffffff" stroke-opacity=".18"/>
    <circle cx="452" cy="318" r="126" fill="url(#bg)" opacity=".9"/>
    <path d="M262 674c26-116 102-178 190-178s164 62 190 178" fill="#dbeafe" opacity=".9"/>
    <rect x="186" y="178" width="198" height="86" rx="16" fill="#ffffff" opacity=".08"/>
    <rect x="517" y="178" width="198" height="86" rx="16" fill="#ffffff" opacity=".08"/>
    <rect x="192" y="620" width="516" height="78" rx="16" fill="#ffffff" opacity=".08"/>
    <path d="M226 222h72m-72 28h116m215-28h96m-96 28h58M244 664h112m30 0h190" stroke="#eef4ff" stroke-width="12" stroke-linecap="round" opacity=".82"/>
    <path d="M311 360l-56-48 56-48M589 264l56 48-56 48M413 396l72-168" stroke="#07101f" stroke-width="28" stroke-linecap="round" stroke-linejoin="round" opacity=".9"/>
  </g>
</svg>
